<?xml version="1.0" encoding="UTF-8"?>
<!DOCTYPE svg PUBLIC "-//W3C//DTD SVG 1.1//EN" "http://www.w3.org/Graphics/SVG/1.1/DTD/svg11.dtd">
<!-- Creator: CorelDRAW -->
<svg xmlns="http://www.w3.org/2000/svg" xml:space="preserve" width="58.2082mm" height="52.9166mm" style="shape-rendering:geometricPrecision; text-rendering:geometricPrecision; image-rendering:optimizeQuality; fill-rule:evenodd; clip-rule:evenodd"
viewBox="0 0 58.2082 52.9166"
 xmlns:xlink="http://www.w3.org/1999/xlink">
 <defs>
  <style type="text/css">
   <![CDATA[
    .fil0 {fill:#FEFEFE}
    .fil1 {fill:#FEFEFE;fill-rule:nonzero}
   ]]>
  </style>
 </defs>
 <g id="Réteg_x0020_1">
  <metadata id="CorelCorpID_0Corel-Layer"/>
  <g id="_642032496">
   <path id="_642042768" class="fil0" d="M4.1102 25.8715c-0.1541,0 -0.289,0.0578 -0.4045,0.1734 -0.1156,0.1059 -0.1734,0.2408 -0.1734,0.4045 0,0.1638 0.0578,0.2986 0.1734,0.4142 0.1155,0.1156 0.2504,0.1638 0.4045,0.1638 0.1638,0 0.2986,-0.0482 0.4142,-0.1638 0.1059,-0.1156 0.1638,-0.2504 0.1638,-0.4142 0,-0.1637 -0.0579,-0.2986 -0.1638,-0.4045 -0.1156,-0.1156 -0.2504,-0.1734 -0.4142,-0.1734l0 0z"/>
   <path id="_642042600" class="fil0" d="M52.2613 25.8715c-0.1541,0 -0.289,0.0578 -0.4046,0.1734 -0.1155,0.1059 -0.1734,0.2408 -0.1734,0.4045 0.0001,0.1638 0.0578,0.2986 0.1734,0.4142 0.1156,0.1156 0.2505,0.1638 0.4046,0.1638 0.1637,0 0.2986,-0.0482 0.4142,-0.1638 0.106,-0.1156 0.1637,-0.2504 0.1637,-0.4142 0,-0.1637 -0.0578,-0.2986 -0.1637,-0.4045 -0.1156,-0.1156 -0.2505,-0.1734 -0.4142,-0.1734l0 0z"/>
   <polygon id="_642042528" class="fil0" points="3.4303,20.213 52.9533,20.213 52.9533,19.9941 3.4303,19.9941 "/>
   <polygon id="_642041688" class="fil0" points="3.4303,20.7088 52.9533,20.7088 52.9533,20.4899 3.4303,20.4899 "/>
   <polygon id="_642041592" class="fil0" points="3.4303,32.4267 52.9533,32.4267 52.9533,32.2078 3.4303,32.2078 "/>
   <polygon id="_642042216" class="fil0" points="3.4303,32.9225 52.9533,32.9225 52.9533,32.7036 3.4303,32.7036 "/>
   <polygon id="_642042120" class="fil0" points="49.1972,38.3836 46.6946,36.9387 46.5196,37.242 49.022,38.6869 "/>
   <polygon id="_642042072" class="fil0" points="43.8518,44.8487 41.9943,42.635 41.7259,42.8601 43.5834,45.0738 "/>
   <polygon id="_642041496" class="fil0" points="36.6175,49.0956 35.6291,46.3802 35.3,46.5 36.2883,49.2154 "/>
   <polygon id="_642041424" class="fil0" points="28.3669,50.6122 28.3669,47.7225 28.0167,47.7225 28.0167,50.6122 "/>
   <polygon id="_642041400" class="fil0" points="20.0952,49.2154 21.0836,46.5 20.7544,46.3802 19.7661,49.0956 "/>
   <polygon id="_642041184" class="fil0" points="12.8002,45.0738 14.6577,42.8601 14.3893,42.635 12.5318,44.8487 "/>
   <polygon id="_642040200" class="fil0" points="7.3615,38.6869 9.864,37.242 9.6889,36.9387 7.1864,38.3836 "/>
   <polygon id="_642040080" class="fil0" points="7.1864,14.5331 9.6889,15.9779 9.864,15.6746 7.3615,14.2297 "/>
   <polygon id="_642040512" class="fil0" points="12.5318,8.068 14.3893,10.2815 14.6577,10.0564 12.8002,7.8428 "/>
   <polygon id="_642039744" class="fil0" points="19.7661,3.821 20.7544,6.5364 21.0836,6.4167 20.0952,3.7012 "/>
   <polygon id="_642039888" class="fil0" points="49.022,14.2297 46.5196,15.6746 46.6946,15.9779 49.1972,14.5331 "/>
   <polygon id="_642039648" class="fil0" points="43.5834,7.8428 41.7259,10.0564 41.9943,10.2815 43.8518,8.068 "/>
   <polygon id="_642039456" class="fil0" points="36.2883,3.7012 35.3,6.4167 35.6291,6.5364 36.6175,3.821 "/>
   <polygon id="_642039144" class="fil0" points="28.0167,2.3044 28.0167,5.1941 28.3669,5.1941 28.3669,2.3044 "/>
   <polygon id="_642039216" class="fil0" points="23.9701,3.5244 24.3268,5.5475 24.6718,5.4868 24.3151,3.4636 "/>
   <polygon id="_642038592" class="fil0" points="16.3809,6.3514 17.408,8.1306 17.7113,7.9554 16.6842,6.1763 "/>
   <polygon id="_642038904" class="fil0" points="10.2162,11.6036 11.7899,12.9241 12.0151,12.6558 10.4413,11.3352 "/>
   <polygon id="_642038232" class="fil0" points="10.4413,41.5813 12.0151,40.2608 11.7899,39.9925 10.2162,41.313 "/>
   <polygon id="_642038112" class="fil0" points="16.6842,46.7403 17.7113,44.9612 17.408,44.786 16.3809,46.5651 "/>
   <polygon id="_642038040" class="fil0" points="24.3151,49.453 24.6718,47.4299 24.3268,47.369 23.9701,49.3921 "/>
   <polygon id="_642037800" class="fil0" points="32.4135,49.3921 32.0567,47.369 31.7118,47.4299 32.0685,49.453 "/>
   <polygon id="_642037440" class="fil0" points="40.0027,46.5651 38.9756,44.786 38.6722,44.9612 39.6994,46.7403 "/>
   <polygon id="_642037416" class="fil0" points="46.1674,41.313 44.5936,39.9925 44.3685,40.2608 45.9422,41.5813 "/>
   <polygon id="_642037680" class="fil0" points="45.9422,11.3352 44.3685,12.6558 44.5936,12.9241 46.1674,11.6036 "/>
   <polygon id="_642037632" class="fil0" points="39.6994,6.1763 38.6722,7.9554 38.9756,8.1306 40.0027,6.3514 "/>
   <polygon id="_642036408" class="fil0" points="32.0685,3.4636 31.7118,5.4868 32.0567,5.5475 32.4135,3.5244 "/>
   <path id="_642036888" class="fil0" d="M9.8566 35.263c3.2815,6.8218 10.2587,11.5303 18.3352,11.5305 8.0765,-0.0002 15.0536,-4.7087 18.3352,-11.5304l-0.3157 -0.152c-3.2255,6.7045 -10.0818,11.3322 -18.0195,11.3322 -7.9377,0 -14.794,-4.6277 -18.0196,-11.3322l-0.3156 0.1519z"/>
   <path id="_642036744" class="fil0" d="M46.527 17.6536c-3.2815,-6.8218 -10.2587,-11.5303 -18.3352,-11.5305 -8.0765,0.0002 -15.0537,4.7087 -18.3353,11.5305l0.3157 0.1518c3.2256,-6.7045 10.0819,-11.3322 18.0196,-11.332 7.9377,-0.0002 14.7939,4.6275 18.0195,11.332l0.3157 -0.1518z"/>
   <polygon id="_642036000" class="fil0" points="38.5885,16.5431 42.7456,16.5431 42.7456,16.2805 38.5885,16.2805 "/>
   <polygon id="_642036168" class="fil0" points="13.6379,16.5431 17.795,16.5431 17.795,16.2805 13.6379,16.2805 "/>
   <path id="_642035928" class="fil1" d="M14.8518 23.4174l3.3613 0 0 1.1416 -1.1077 0 0 4.9403 -1.1741 0 0 -4.9403 -1.0795 0 0 -1.1416zm4.2348 0l1.2277 0c0.6731,0 1.1514,0.0607 1.4365,0.1806 0.285,0.12 0.515,0.3189 0.6886,0.5969 0.1736,0.278 0.2597,0.6082 0.2597,0.9878 0,0.4008 -0.0946,0.7338 -0.2865,1.0033 -0.1919,0.2681 -0.4812,0.4713 -0.8664,0.6096l1.4393 2.7037 -1.2658 0 -1.3687 -2.5753 -0.1073 0 0 2.5753 -1.1571 0 0 -6.0819zm1.1571 2.3777l0.3641 0c0.3697,0 0.6237,-0.048 0.7634,-0.1453 0.1383,-0.096 0.2074,-0.2554 0.2074,-0.4784 0,-0.1326 -0.0338,-0.2484 -0.103,-0.3457 -0.0691,-0.0974 -0.1609,-0.1679 -0.2766,-0.2103 -0.1157,-0.0437 -0.3273,-0.0649 -0.6364,-0.0649l-0.3189 0 0 1.2446zm5.5274 -2.3777l1.174 0 2.3396 6.0819 -1.2036 0 -0.4756 -1.2531 -2.4793 0 -0.4967 1.2531 -1.2023 0 2.3439 -6.0819zm0.5955 1.6129l-0.8114 2.087 1.6171 0 -0.8057 -2.087zm3.3513 -1.6129l1.191 0 1.5297 4.3208 1.5494 -4.3208 1.1909 0 -2.1914 6.0819 -1.1162 0 -2.1534 -6.0819zm6.3952 0l3.3204 0 0 1.1331 -2.1703 0 0 1.0993 2.1703 0 0 1.1133 -2.1703 0 0 1.5988 2.1703 0 0 1.1374 -3.3204 0 0 -6.0819zm4.3985 0l1.1585 0 0 4.9784 1.6863 0 0 1.1035 -2.8448 0 0 -6.0819z"/>
   <path id="_642036120" class="fil1" d="M22.5761 18.0037l0 -3.5913 0.4875 0 1.8864 2.8195 0 -2.8195 0.4557 0 0 3.5913 -0.4875 0 -1.8864 -2.822 0 2.822 -0.4557 0zm3.6381 0l0 -3.5913 2.5962 0 0 0.424 -2.1213 0 0 1.0995 1.9867 0 0 0.4214 -1.9867 0 0 1.2225 2.2049 0 0 0.4239 -2.6798 0zm3.9633 0l-0.9532 -3.5913 0.4875 0 0.5469 2.3538c0.0585,0.2467 0.1087,0.4917 0.1513,0.735 0.092,-0.3838 0.1455,-0.6046 0.1622,-0.6639l0.6831 -2.4249 0.5736 0 0.5143 1.8178c0.1287,0.4507 0.2216,0.8746 0.2793,1.271 0.0451,-0.2266 0.1053,-0.4875 0.1789,-0.781l0.5627 -2.3078 0.4783 0 -0.985 3.5913 -0.4582 0 -0.7567 -2.7359c-0.0636,-0.2291 -0.1012,-0.3696 -0.1129,-0.4214 -0.0376,0.1647 -0.0727,0.3052 -0.1054,0.4214l-0.7617 2.7359 -0.485 0z"/>
   <path id="_642034776" class="fil0" d="M56.1115 25.8094c-0.0466,0.4723 -0.118,0.9435 -0.1914,1.4124 -0.0725,0.4637 -0.1556,0.9257 -0.2457,1.3863 -0.044,0.2248 -0.0887,0.4495 -0.1361,0.6735 -0.0116,0.0547 -0.0244,0.1096 -0.0374,0.1646 -0.0836,0.0219 -0.1532,0.1428 -0.1892,0.2066 -0.0631,0.1121 -0.0966,0.2339 -0.1037,0.3607 -0.1048,0.0541 -0.2097,0.108 -0.3147,0.1619 -0.101,0.052 -0.2089,0.099 -0.31,0.1552 0.1094,-0.2088 0.1508,-0.5055 0.1794,-0.6539 0.1106,-0.572 0.2155,-1.1449 0.3217,-1.7176 0.101,-0.5446 0.2432,-1.0953 0.2689,-1.6502 0.005,-0.1065 0.0044,-0.2138 -0.0035,-0.3206 0.0963,-0.1017 0.1304,-0.2614 0.1485,-0.395 0.0195,-0.1437 0.0405,-0.3239 0.0112,-0.4705 0.0378,-0.0238 0.0743,-0.0471 0.1089,-0.0673 0.0537,-0.0314 0.1202,-0.0639 0.186,-0.1003 0.0818,0.108 0.1945,0.1966 0.3111,0.2547 0.0226,0.1968 0.0159,0.3989 -0.004,0.5995zm-0.7081 4.1027c-0.0224,0.0118 -0.0449,0.0233 -0.0673,0.035 0.0129,-0.088 0.0404,-0.1729 0.0849,-0.2519 0.0082,-0.0145 0.0194,-0.0296 0.0319,-0.045 -0.0197,0.0871 -0.0374,0.1744 -0.0495,0.2619zm-1.8182 0.5098c-0.124,-0.0233 -0.2439,-0.0497 -0.3528,-0.0678 -0.0622,-0.0103 -0.1245,-0.02 -0.1867,-0.03 0.0013,-0.0035 0.0026,-0.0069 0.0034,-0.0109 0.1936,-0.9359 0.405,-1.8678 0.6096,-2.8013 0.1011,-0.4612 0.2036,-0.9221 0.3075,-1.3827 0.0507,-0.2246 0.1016,-0.4492 0.1529,-0.6737 0.0283,-0.1235 0.0566,-0.247 0.085,-0.3704 0.0167,-0.0724 0.0373,-0.1288 0.0318,-0.1929 0.108,0.0207 0.2143,0.0473 0.3168,0.0843 0.0144,0.0053 0.0276,0.0111 0.0414,0.0167 -0.037,0.1803 0.0177,0.3927 0.0874,0.5512 0.101,0.2295 0.2856,0.4178 0.5121,0.5245 0.0009,0.0004 0.0018,0.0006 0.0027,0.001 0.0035,0.1019 0.0015,0.2041 -0.006,0.3065 -0.0367,0.5047 -0.1633,1.0082 -0.261,1.5037 -0.0969,0.4911 -0.1972,0.9815 -0.2908,1.4733 -0.0334,0.1758 -0.0601,0.355 -0.0997,0.5302 -0.3785,-0.0321 -0.837,0.1534 -0.9536,0.5383zm0.8221 -0.1583c-0.0489,0.0825 -0.1236,0.1273 -0.1853,0.1951 -0.1618,0.0275 -0.338,0.0128 -0.5106,-0.0146 0.075,-0.1165 0.1495,-0.2196 0.2783,-0.301 0.1548,-0.098 0.334,-0.1351 0.5133,-0.1164 -0.023,0.0818 -0.0523,0.1635 -0.0957,0.2369zm-1.4952 0.0391c-0.0679,-0.0108 -0.1357,-0.0221 -0.2037,-0.0327 0.2579,-1.0479 0.4795,-2.1026 0.6383,-3.1705 0.0775,-0.5214 0.1375,-1.0456 0.186,-1.5702 0.0126,-0.1355 0.0244,-0.2711 0.035,-0.4066 0.0053,-0.0678 0.0079,-0.136 0.0147,-0.2036 0.0041,-0.0399 0.0122,-0.0732 0.0241,-0.1031 0.0156,0.0014 0.0312,0.003 0.0467,0.0044 0.1667,0.0154 0.3379,0.0307 0.5062,0.0584 -0.0884,0.1388 -0.0991,0.3654 -0.1352,0.5147 -0.0566,0.235 -0.113,0.47 -0.169,0.7051 -0.1093,0.4591 -0.2172,0.9185 -0.3239,1.3782 -0.2159,0.9307 -0.4135,1.8657 -0.6184,2.7989 -0.0021,0.0096 -0.0021,0.0186 -0.0008,0.027zm-0.9137 -0.1429c-0.842,-0.1309 -1.6837,-0.2641 -2.5265,-0.3895 0.0531,-0.5345 0.2,-1.0513 0.3445,-1.5674 0.1566,-0.5587 0.2763,-1.1185 0.3743,-1.6903 0.0982,-0.5726 0.1938,-1.1454 0.2947,-1.7174 0.0315,-0.179 0.0394,-0.4188 0.1128,-0.6091 0.451,0.1232 0.8968,0.2656 1.3501,0.3804 0.5153,0.1306 1.0296,0.1897 1.5551,0.2398 -0.0222,0.071 -0.0301,0.1516 -0.0389,0.2485 -0.0547,0.6049 -0.1244,1.2077 -0.2112,1.8088 -0.1645,1.1392 -0.3778,2.273 -0.6702,3.3867 -0.1949,-0.0303 -0.3898,-0.0602 -0.5847,-0.0905zm-2.9077 -0.4409c0.2748,-1.127 0.4074,-2.2774 0.5052,-3.432 0.051,-0.6023 0.0853,-1.2092 0.1626,-1.8088 0.0191,-0.148 0.0454,-0.3041 0.1228,-0.4344 0.0055,-0.0092 0.0112,-0.0178 0.0171,-0.0261 0.1306,0.0261 0.2604,0.0554 0.3895,0.0872 0.0651,0.0161 0.13,0.0329 0.1949,0.05 -0.055,0.162 -0.0665,0.3498 -0.0938,0.5057 -0.1061,0.6061 -0.2146,1.2117 -0.3263,1.8167 -0.107,0.5794 -0.2441,1.1497 -0.4024,1.7171 -0.1429,0.5121 -0.2787,1.0263 -0.3276,1.5564 -0.0803,-0.0109 -0.161,-0.0215 -0.242,-0.0318zm-0.8319 -0.1377c-0.0204,-0.0049 -0.04,-0.0106 -0.0595,-0.0163 0.0306,-0.2241 -0.0344,-0.4262 -0.1549,-0.6163 -0.0869,-0.1372 -0.2074,-0.3297 -0.3797,-0.356 0.0351,-0.2962 0.1119,-0.5914 0.1455,-0.8865 0.0463,-0.406 0.0657,-0.8145 0.0877,-1.2223 0.0259,-0.4783 0.052,-0.9583 0.1276,-1.4319 0.0227,-0.142 0.0466,-0.321 0.0901,-0.4967 0.4065,0.033 0.786,-0.2807 0.9305,-0.6436 0.118,0.0064 0.236,0.013 0.3532,0.0263 0.1396,0.0159 0.2784,0.0378 0.4165,0.0637 -0.0413,0.0585 -0.0731,0.1292 -0.0992,0.2202 -0.0765,0.2666 -0.0849,0.5608 -0.1132,0.8354 -0.0319,0.31 -0.061,0.6203 -0.0905,0.9306 -0.1181,1.2452 -0.2291,2.5018 -0.5493,3.7146 -0.2374,-0.0309 -0.4748,-0.0653 -0.7048,-0.1212zm-0.1779 -0.0592c-0.2845,-0.1229 -0.4438,-0.3556 -0.4335,-0.7058 0.0012,-0.0417 0.0038,-0.0835 0.0073,-0.1252 0.2632,0.1455 0.4572,0.5421 0.4262,0.831zm0.547 -5.6435c0.0938,0.0123 0.1882,0.0196 0.2827,0.0254 -0.1465,0.318 -0.4309,0.468 -0.7601,0.5263 0.082,-0.2611 0.2195,-0.4924 0.4774,-0.5517zm0.6653 -0.2508c0.2198,-0.0771 0.4386,-0.161 0.661,-0.2304 0.0029,-0.0009 0.0059,-0.0017 0.0087,-0.0026 0.1773,0.1286 0.4392,0.1003 0.6269,-0.0004 0.0253,0.0057 0.0508,0.0119 0.077,0.0186 0.0125,0.003 0.025,0.0059 0.0375,0.009 -0.1898,0.1314 -0.3796,0.2552 -0.5918,0.3563 -0.0582,0.0277 -0.1084,0.0552 -0.1523,0.085 -0.3509,-0.0748 -0.7261,-0.1296 -1.072,-0.0884 0.1373,-0.0441 0.2726,-0.1006 0.405,-0.1471zm1.8136 -0.114c-0.0918,0.1118 -0.1958,0.2017 -0.3179,0.2846 -0.0749,0.0508 -0.1529,0.0981 -0.2096,0.1704 -0.0091,0.0115 -0.0177,0.0235 -0.0257,0.0359 -0.054,-0.0139 -0.1081,-0.0279 -0.1623,-0.0411 -0.1039,-0.0252 -0.2131,-0.0517 -0.3252,-0.077 0.0548,-0.0262 0.1137,-0.047 0.172,-0.0731 0.204,-0.0914 0.4033,-0.2133 0.5687,-0.3668 0.0998,0.0235 0.1998,0.0455 0.3,0.0671zm0.1213 0.026c0.0383,0.0082 0.0766,0.0164 0.1149,0.0246 -0.0284,0.1419 -0.0265,0.2932 0.0032,0.41 -0.0202,0.017 -0.0145,0.0582 0.0148,0.0695 0.0654,0.0251 0.1287,0.0407 0.1967,0.0576 0.0341,0.0085 0.063,-0.016 0.0652,-0.0497 0.0084,-0.1262 0.0051,-0.2703 0.0714,-0.382 0.0102,-0.0171 0.0214,-0.0324 0.0335,-0.0465 0.1873,0.056 0.4039,0.0551 0.5949,0.0842 0.2124,0.0323 0.4271,0.0693 0.6327,0.1331 0.0083,0.0025 0.016,0.0031 0.0231,0.0025 0.0364,0.0902 0.0416,0.1898 0.0294,0.2965 -0.0077,0.0668 -0.0262,0.1321 0.0049,0.1965 0.0604,0.1253 0.2212,0.1378 0.3428,0.1332 0.0442,-0.0017 0.0585,-0.0485 0.0428,-0.0779 0.0298,-0.1299 0.0466,-0.2609 0.0461,-0.3931 0.1656,0.0791 0.365,0.1033 0.54,0.1412 0.0897,0.0195 0.1795,0.038 0.2694,0.0563 -0.1907,0.1225 -0.3819,0.2448 -0.5678,0.3741 -0.0326,0.0227 -0.0597,0.0457 -0.0828,0.0692 -0.4668,-0.0501 -0.9339,-0.0851 -1.3954,-0.1903 -0.5145,-0.1173 -1.0184,-0.2757 -1.5283,-0.4112 0.0236,-0.0305 0.0506,-0.058 0.0822,-0.081 0.1777,-0.1297 0.3336,-0.2398 0.4663,-0.4168zm1.6705 0.175c-0.2005,-0.0232 -0.3998,-0.0589 -0.5997,-0.0861 -0.1639,-0.0224 -0.345,-0.0622 -0.5149,-0.0563 0.0885,-0.0627 0.2038,-0.0771 0.3156,-0.0796 0.2639,-0.0059 0.5768,-0.0006 0.777,0.1987 0.0077,0.0077 0.015,0.0155 0.022,0.0233zm-1.4298 -0.1845c0.0048,-0.0108 0.0072,-0.0225 0.0071,-0.034 0.0222,-0.0925 0.0672,-0.1736 0.1627,-0.2292 0.2392,-0.1391 0.5514,-0.0579 0.7958,0.0212 0.1138,0.0368 0.2258,0.0785 0.3393,0.1161 0.1103,0.0367 0.2374,0.0495 0.3431,0.0929 0.2781,0.1143 0.2025,0.6325 0.147,0.8681 -0.0004,0.0016 -0.0003,0.0029 -0.0005,0.0043 -0.049,-0.0009 -0.099,-0.0077 -0.1308,-0.0337 -0.0881,-0.0723 -0.0395,-0.1545 -0.0304,-0.2428 0.0123,-0.1186 -0.0046,-0.2383 -0.064,-0.3429 -0.1165,-0.2048 -0.346,-0.306 -0.5698,-0.3379 -0.2141,-0.0306 -0.5243,-0.0447 -0.717,0.0763 -0.1691,0.1062 -0.2167,0.312 -0.2286,0.5008 -0.03,-0.0058 -0.0597,-0.0111 -0.0899,-0.0154 0.0288,-0.1381 0.0106,-0.3017 0.036,-0.4438zm3.215 0.7534c0.0557,0.0117 0.1114,0.0235 0.1671,0.0355 -0.1839,0.1526 -0.4195,0.25 -0.5955,0.4087 -0.0405,-0.0072 -0.0806,-0.0141 -0.12,-0.0204 -0.1312,-0.0209 -0.2628,-0.0379 -0.3943,-0.0531 0.2003,-0.1585 0.4325,-0.2903 0.6484,-0.431 0.0982,0.0198 0.1963,0.0396 0.2943,0.0603zm0.4991 1.5958c-0.1473,-0.0901 -0.2647,-0.2107 -0.3524,-0.3655 -0.0891,-0.157 -0.103,-0.3044 -0.1186,-0.4665 0.1513,0.082 0.2626,0.1921 0.3505,0.3391 0.0362,0.0897 0.0684,0.1814 0.0887,0.2833 0.0139,0.0696 0.0242,0.1396 0.0318,0.2096zm-0.0126 -0.7104c-0.0336,-0.0264 -0.0716,-0.0501 -0.1015,-0.0658 -0.0129,-0.0068 -0.0251,-0.0087 -0.0359,-0.0072 -0.0291,-0.0357 -0.0607,-0.0684 -0.0935,-0.097 0.0504,0.0109 0.1019,0.019 0.1534,0.0313 0.0674,0.016 0.1394,0.0323 0.2041,0.0583 -0.0452,0.0247 -0.0887,0.0509 -0.1266,0.0804zm0.0645 0.2043c0.0047,-0.0424 0.0289,-0.0799 0.0391,-0.1216 0.0345,-0.0139 0.0686,-0.0309 0.1023,-0.0493 0.0002,0.0106 0.0004,0.0222 0.001,0.0353 0.006,0.1256 0.0121,0.2524 -0.0083,0.3772 -0.0092,0.0565 -0.0267,0.108 -0.0468,0.1584 -0.0088,-0.0477 -0.0193,-0.095 -0.0323,-0.1417 -0.014,-0.0502 -0.0322,-0.1046 -0.0539,-0.1596 0.0052,-0.0085 0.0077,-0.0192 0.0062,-0.0322 -0.0028,-0.0225 -0.0057,-0.0444 -0.0073,-0.0665zm0.4518 -0.8362c0.0001,0.0001 0.0003,0.0001 0.0005,0.0002 -0.0182,0.1071 0.0013,0.2104 0.0467,0.3042 -0.0505,0.0357 -0.0995,0.0714 -0.1462,0.0989 -0.0413,0.0242 -0.0881,0.0473 -0.1365,0.0707 -0.0518,-0.0425 -0.1292,-0.0562 -0.1997,-0.0743 -0.1399,-0.0359 -0.3083,-0.0815 -0.45,-0.0341 -0.1132,-0.0644 -0.2403,-0.1066 -0.3693,-0.1379 0.0728,-0.0492 0.143,-0.1038 0.212,-0.1516 0.121,-0.0837 0.2404,-0.1668 0.3527,-0.2617 0.1274,0.0288 0.2544,0.0592 0.3804,0.0935 0.1038,0.0283 0.2071,0.0587 0.3094,0.0921zm0.1105 0.0406c0.0424,0.0157 0.0849,0.0298 0.1287,0.0362 0.0181,0.031 0.0348,0.0626 0.0502,0.0944 -0.0486,0.014 -0.0963,0.0385 -0.1431,0.0672 -0.0271,-0.057 -0.0407,-0.122 -0.0358,-0.1978zm0.2194 0.2224c0.0317,0.0804 0.0556,0.1628 0.0731,0.2466 -0.0649,-0.0492 -0.1279,-0.0993 -0.1789,-0.1564 0.0398,-0.0274 0.0766,-0.0569 0.1058,-0.0902zm0.0218 -0.2113c0.0015,-0.0087 -0.0008,-0.0184 -0.0081,-0.0271 -0.1185,-0.1397 -0.3852,-0.1789 -0.5553,-0.2281 -0.2381,-0.069 -0.4799,-0.1262 -0.7226,-0.1765 -0.1018,-0.0211 -0.2039,-0.041 -0.3059,-0.0609 -0.0065,-0.0034 -0.014,-0.005 -0.0219,-0.0043 -0.1245,-0.024 -0.2491,-0.0474 -0.3737,-0.0709 -0.195,-0.0368 -0.4069,-0.1063 -0.6092,-0.1054 -0.001,-0.0168 -0.002,-0.0335 -0.0036,-0.0502 -0.012,-0.1279 -0.0247,-0.3022 -0.1075,-0.4071 -0.0849,-0.1075 -0.2578,-0.1032 -0.3791,-0.1377 -0.1818,-0.0518 -0.357,-0.1238 -0.5387,-0.1757 -0.2739,-0.0782 -0.6257,-0.1302 -0.8722,0.0517 -0.0696,0.0513 -0.1216,0.1329 -0.1575,0.2271 -0.242,-0.0564 -0.5052,-0.1339 -0.7668,-0.1706 -0.0051,-0.0016 -0.0105,-0.0021 -0.016,-0.002 -0.1971,-0.0265 -0.3932,-0.0294 -0.5783,0.0183 -0.2457,0.0632 -0.4852,0.1647 -0.7242,0.2494 -0.2222,0.0787 -0.468,0.1403 -0.6732,0.2593 -0.3232,0.0573 -0.5032,0.3407 -0.5936,0.6438 -0.1283,0.4307 -0.1785,0.8879 -0.2155,1.3345 -0.0383,0.4626 -0.0521,0.9268 -0.088,1.3895 -0.036,0.4642 -0.1175,0.9135 -0.1955,1.3714 -0.0554,0.3248 -0.0757,0.6889 0.1606,0.9511 0.2549,0.2827 0.6782,0.3206 1.0302,0.3785 0.9587,0.1577 1.9189,0.3057 2.879,0.4545 0.5489,0.0851 1.0975,0.1727 1.6472,0.2522 0.2313,0.0333 0.4665,0.0741 0.7009,0.0721 0.1304,-0.001 0.2409,-0.0219 0.347,-0.0651 0.0575,-0.0041 0.1073,-0.0255 0.151,-0.0588 0.0033,0.0002 0.0066,0.0003 0.0099,-0.0005 0.1726,-0.0442 0.3359,-0.1453 0.4961,-0.2226 0.1033,-0.0497 0.2064,-0.0996 0.3098,-0.1493 0.0215,0.0012 0.0434,-0.0075 0.055,-0.0262 0.0477,-0.0229 0.0953,-0.0458 0.143,-0.0684 0.0266,-0.002 0.0533,-0.017 0.0633,-0.045 0.0838,-0.2338 0.1186,-0.4935 0.1689,-0.7365 0.0511,-0.2467 0.1,-0.494 0.1448,-0.742 0.0898,-0.4962 0.1691,-0.9943 0.2395,-1.4936 0.0645,-0.4577 0.1328,-0.9186 0.1633,-1.3801 0.0239,-0.3609 0.0016,-0.7417 -0.2031,-1.0488z"/>
   <path id="_642035400" class="fil0" d="M29.4345 39.1046c-0.0003,-0.0306 -0.0007,-0.0612 -0.001,-0.0918 0.0262,-0.0418 0.0619,-0.1134 0.1012,-0.0355 0.047,0.0933 -0.06,0.0893 -0.1002,0.1273z"/>
   <path id="_642035136" class="fil0" d="M34.9718 40.7444c-0.0139,-0.0063 -0.0308,-0.0063 -0.0454,0.0057 -0.0327,0.0267 -0.066,0.0464 -0.0996,0.06 -0.1013,0.0203 -0.2186,0.007 -0.3119,-0.0225 -0.0972,-0.0449 -0.192,-0.1178 -0.2793,-0.1974 0.1524,-0.2314 0.3974,-0.3713 0.6764,-0.3804 0.0691,0.0938 0.133,0.1972 0.1413,0.3025 0.0086,0.1091 -0.025,0.1837 -0.0815,0.2321zm-0.9818 -0.403c0.1972,-0.2231 0.4745,-0.3402 0.7737,-0.3286 0.0116,0.0157 0.0231,0.0315 0.0346,0.0473 0.0165,0.0226 0.0349,0.0464 0.054,0.0711 -0.2762,0.0268 -0.5214,0.17 -0.6779,0.4012 -0.0682,-0.0667 -0.1306,-0.1342 -0.1844,-0.191zm-0.057 -0.0594c-0.1196,-0.1222 -0.2362,-0.2472 -0.3494,-0.3752 -0.0822,-0.0931 -0.3768,-0.3591 -0.3702,-0.4997 0.1073,-0.1102 0.3172,-0.1651 0.4403,-0.1938 0.0494,-0.0115 0.2504,-0.0493 0.4004,-0.0384 0.0451,0.0127 0.0896,0.0286 0.1336,0.0475l0.5153 0.7069c-0.2974,0.0056 -0.5705,0.1313 -0.77,0.3527zm-0.0587 0.07c-0.0631,-0.0591 -0.1238,-0.119 -0.1824,-0.1766 -0.0699,-0.0687 -0.1502,-0.1722 -0.2284,-0.2809 0.1342,0.1544 0.2728,0.305 0.4159,0.4512 -0.0017,0.0021 -0.0035,0.0041 -0.0051,0.0063zm-9.3404 -1.248c0.0455,0.048 0.0378,0.0937 0.0045,0.1337 0.0178,-0.0475 0.0142,-0.0927 -0.0045,-0.1337zm4.0001 1.385c0.005,-0.0495 0.007,-0.099 0.0056,-0.1479 0.0052,-0.0479 0.006,-0.096 0.0007,-0.1443 -0.0316,-0.2894 -0.2413,-0.4482 -0.485,-0.5459 -0.0043,-0.0036 -0.0096,-0.0063 -0.0164,-0.0078 -0.0021,-0.0004 -0.0043,-0.0008 -0.0064,-0.0012 -0.0144,-0.0056 -0.0292,-0.0103 -0.0439,-0.0155 -0.0039,-0.0088 -0.0892,-0.0321 -0.1212,-0.0386 -0.063,-0.0179 -0.21,-0.0464 -0.2189,-0.0405 -0.3098,-0.0507 -0.6222,-0.0767 -0.9377,-0.0771 -0.007,0 -0.0132,0.0016 -0.0186,0.0042 -0.1423,-0.0037 -0.2846,-0.0031 -0.4268,0.0033 -0.1818,0.0084 -0.3725,0.0284 -0.5053,0.1615 -0.2278,0.1951 -0.2536,0.5783 -0.1994,0.8735 0.0105,0.0575 0.0212,0.1147 0.032,0.1719 -0.5539,0.0501 -1.1151,0.0476 -1.6666,-0.0274 -0.4976,-0.0674 -1.085,-0.2169 -1.3898,-0.6522 -0.001,-0.0013 -0.0017,-0.0027 -0.0026,-0.004 0.0097,-0.0109 0.0136,-0.0265 0.0047,-0.0434 -0.1244,-0.2353 0.0826,-0.5236 0.2528,-0.6802 0.0393,-0.0361 -0.016,-0.0978 -0.0552,-0.0617 -0.1294,0.1191 -0.2646,0.2952 -0.3055,0.479 -0.0054,-0.2205 0.1032,-0.4358 0.2639,-0.6506 0.0013,-0.0016 0.002,-0.0033 0.003,-0.0049 0.2425,0.2251 0.5367,0.3784 0.8634,0.4401 0.286,0.0541 0.7323,0.0687 0.9761,-0.1232 0.2173,-0.1708 0.0603,-0.3772 -0.1598,-0.4139 -0.0254,-0.0043 -0.0506,-0.0086 -0.0759,-0.013 -0.0018,-0.0005 -0.0034,-0.0011 -0.005,-0.0016 -0.1852,-0.0502 -0.3549,-0.0779 -0.5267,-0.1736 -0.1544,-0.0859 -0.5017,-0.3018 -0.3975,-0.523 0.002,-0.0042 0.0023,-0.0082 0.003,-0.0122 0.2207,-0.1917 0.4716,-0.34 0.776,-0.4307 0.9418,-0.2804 1.958,-0.1492 2.9091,0.0076 0.9982,0.1646 1.9911,0.3212 2.9998,0.4085 1.0167,0.0879 2.0363,0.134 3.0556,0.1799 -0.0393,0.0865 -0.0779,0.1733 -0.1154,0.2601 -0.0129,0.0301 0.0118,0.0516 0.0376,0.0524 0.1334,0.1441 0.3686,0.1848 0.552,0.2218 0.2669,0.0537 0.5351,0.0502 0.8019,0.003 -0.0356,0.09 -0.0712,0.1801 -0.1068,0.2702 -0.0153,-0.0253 -0.0367,-0.0449 -0.0626,-0.0599 -0.0068,-0.0074 -0.0145,-0.0113 -0.0224,-0.0115 -0.0436,-0.0196 -0.0963,-0.0291 -0.1517,-0.0321 -0.2342,-0.0577 -0.4827,-0.0339 -0.704,0.0753 -0.0322,0.0159 -0.3014,0.1873 -0.3085,0.2758 -0.0233,0.009 -0.0408,0.0411 -0.0213,0.0683 0.0622,0.0861 0.1265,0.1704 0.1929,0.2529 -1.5135,0.4907 -3.0807,0.746 -4.6732,0.7286zm-0.0286 0.1744c0.0069,-0.0304 0.0127,-0.061 0.0177,-0.0918 1.5672,0.0178 3.1105,-0.2262 4.6024,-0.699 -1.4363,0.6855 -3.0678,0.6255 -4.6201,0.7908zm-0.0631 -0.2933c0.0047,-0.0553 0.006,-0.1108 0.0034,-0.1665 0.0062,0.0555 0.0048,0.1111 -0.0034,0.1665zm-0.2081 0.3682c-0.0492,0.1297 -0.1034,0.2563 -0.1573,0.3827 -0.7128,-0.3471 -1.5304,-0.3326 -2.2906,-0.1433 -0.0629,-0.2548 -0.1282,-0.5098 -0.126,-0.7697 0.0021,-0.2447 0.0698,-0.467 0.2726,-0.5778 0.037,-0.0134 0.0776,-0.0239 0.1231,-0.0303 0.0171,-0.0025 0.4384,-0.0464 0.6284,-0.0416 0.4284,0.011 1.2803,0.1577 1.2855,0.1594 0.4332,0.1509 0.3962,0.6734 0.2643,1.0206zm-0.2903 0.7034c-0.6714,-0.2109 -1.3812,-0.2419 -2.0706,-0.0873 -0.0018,0.0004 -0.0029,0.0015 -0.0045,0.002 -0.0168,-0.0996 -0.039,-0.199 -0.063,-0.2983 0.7419,-0.1843 1.5436,-0.2043 2.2393,0.1377 -0.0347,0.0815 -0.0687,0.1634 -0.1012,0.2459zm-0.1203 0.3444c-0.0856,0.2918 -0.1434,0.5891 -0.1812,0.8901 -0.535,-0.2277 -1.1183,-0.2487 -1.6964,-0.2342 -0.0087,-0.3361 -0.0191,-0.6729 -0.0649,-1.0063 0.0029,-0.0001 0.0056,0.0005 0.0088,-0.0002 0.675,-0.1514 1.3665,-0.1219 2.0238,0.0835 -0.0329,0.0875 -0.0635,0.1763 -0.0901,0.2671zm-0.1964 1.0218c-0.0047,0.0427 -0.0091,0.0855 -0.0135,0.1282 -0.5339,-0.1831 -1.0993,-0.2083 -1.6611,-0.2254 -0.0006,-0.0365 -0.0014,-0.0729 -0.0023,-0.1087 -0.0007,-0.0258 -0.0014,-0.0517 -0.0021,-0.0775 0.5712,-0.0141 1.1561,0.0026 1.6844,0.2359 -0.0018,0.0158 -0.0038,0.0316 -0.0054,0.0475zm-0.4621 1.3469c-0.0991,0.1103 -0.2224,0.1893 -0.353,0.2201 -0.2721,0.0175 -0.5379,-0.1597 -0.676,-0.4429 -0.167,-0.3422 -0.1755,-0.7546 -0.1819,-1.1385 0.5583,0.0172 1.1202,0.0418 1.6504,0.227 -0.0174,0.1595 -0.0379,0.3179 -0.0712,0.4733 -0.0844,0.2463 -0.2036,0.4776 -0.3683,0.661zm-3.6941 -3.4408c-0.1671,-0.059 -0.3304,-0.1357 -0.4797,-0.2327 0.3277,0.1638 0.7019,0.2347 1.062,0.2749 0.5166,0.0576 1.0373,0.0564 1.5546,0.0097 0.0059,0.0319 0.0119,0.0639 0.0179,0.0958 -0.7087,0.1071 -1.4741,0.0929 -2.1548,-0.1477zm-0.1909 -2.203c0.1038,0.1505 0.2455,0.2692 0.4147,0.3515 0.1132,0.0552 0.2333,0.0923 0.3565,0.1177 0.0527,0.0108 0.1165,0.0132 0.1803,0.0175 0.0143,0.0029 0.0285,0.0061 0.0425,0.0098 0.1536,0.0174 0.1799,0.1188 0.079,0.3043 -0.0357,0.0143 -0.0714,0.0287 -0.1071,0.043 -0.173,0.0592 -0.3625,0.0781 -0.5441,0.0591 -0.2926,-0.0306 -0.5406,-0.1766 -0.7819,-0.3326 0.1061,-0.1989 0.226,-0.3891 0.3601,-0.5703zm-0.3557 0.2008c0.089,-0.1183 0.1814,-0.2287 0.2792,-0.3303 0.0093,0.019 0.0198,0.0372 0.0301,0.0555 -0.0021,0.0019 -0.0045,0.0031 -0.0065,0.0057 -0.141,0.1881 -0.2661,0.3863 -0.3766,0.5936 -0.0377,-0.0247 -0.0754,-0.0493 -0.1131,-0.0735 0.0618,-0.0841 0.1242,-0.1678 0.1869,-0.251zm3.7984 -1.1789c0.024,-0.0507 0.0478,-0.1129 0.0985,-0.1396 0.0055,0.0042 0.0123,0.0071 0.021,0.0078 0.7196,0.0578 1.4172,0.2358 2.0762,0.5276 -0.0038,0.0236 -0.0069,0.0468 -0.0095,0.0697 -0.7555,-0.1017 -1.5058,-0.2537 -2.2613,-0.3546 0.0328,-0.0311 0.0553,-0.0694 0.0751,-0.1109zm0.2916 -0.4113c0.0034,0.0009 0.0066,0.0022 0.0107,0.0021 0.6938,-0.0085 1.3643,0.1795 1.9509,0.5464 -0.0163,0.0599 -0.0306,0.1185 -0.0423,0.1752 -0.6524,-0.2873 -1.3441,-0.4636 -2.0551,-0.5239 -0.0036,-0.0068 -0.009,-0.012 -0.0158,-0.0158 0.0507,-0.0612 0.1014,-0.1223 0.1516,-0.184zm0.5407 -0.6959c0.0519,-0.0704 0.1029,-0.1414 0.1535,-0.2126 0.2702,0.0239 0.5341,0.0806 0.7878,0.1769 0.1313,0.0498 0.2588,0.1087 0.3811,0.1775 0.11,0.0618 0.2993,0.1495 0.3597,0.2761 -0.0759,0.2547 -0.169,0.5088 -0.2379,0.744 -0.5783,-0.3566 -1.2386,-0.5455 -1.9192,-0.5462 0.1623,-0.202 0.3208,-0.4072 0.475,-0.6157zm0.3573 -0.5018c0.0037,0.0012 0.0072,0.0026 0.0118,0.0027 0.5206,0.0114 1.0082,0.1895 1.4133,0.5126 -0.018,0.0984 -0.0422,0.1982 -0.0698,0.2983 -0.1324,-0.1738 -0.4145,-0.284 -0.5912,-0.3628 -0.2901,-0.1295 -0.5977,-0.2064 -0.9128,-0.2391 0.0497,-0.0704 0.0993,-0.141 0.1487,-0.2117zm0.1054 -0.1512c0.1771,-0.2532 0.3583,-0.4086 0.666,-0.4741 0.1176,-0.025 0.2172,-0.0218 0.3015,0.0028 0.3638,0.2638 0.4254,0.6391 0.3673,1.0451 -0.3997,-0.3088 -0.879,-0.4823 -1.3857,-0.501 0.017,-0.0242 0.034,-0.0485 0.0509,-0.0728zm4.7366 1.8603c0.1079,-0.0468 0.2727,-0.0069 0.4067,0.0662 -0.0812,0.0078 -0.1643,0.0312 -0.2359,0.0482 -0.1199,0.0285 -0.2307,0.0709 -0.3338,0.1354 0.0076,-0.1072 0.0522,-0.2018 0.163,-0.2498zm0.5372 0.1577c0.0245,0.0223 0.0456,0.0453 0.0613,0.0684 0.0036,0.0055 0.0079,0.0096 0.0127,0.0127 -0.075,0.1427 -0.1464,0.2873 -0.2141,0.4334 -0.0036,-0.0012 -0.0071,-0.0027 -0.0115,-0.0029 -0.1522,-0.0068 -0.3045,-0.0137 -0.4567,-0.0207 -0.0397,-0.0828 -0.0782,-0.194 -0.0896,-0.3025 0.0012,-0.0007 0.0024,-0.0009 0.0036,-0.0017 0.1047,-0.0749 0.2196,-0.1193 0.3445,-0.1488 0.0996,-0.0236 0.2482,-0.0708 0.3498,-0.0379zm0.363 -0.2617c0.1706,-0.288 0.3777,-0.5144 0.6641,-0.6373 -0.1808,0.1369 -0.3097,0.3351 -0.4145,0.5479 -0.2113,0.429 -0.4003,0.8702 -0.5992,1.305 -0.0033,0.0072 -0.0041,0.0139 -0.0035,0.02 -0.0828,-0.0315 -0.1562,-0.0734 -0.2071,-0.1291 0.1649,-0.3795 0.3493,-0.7504 0.5602,-1.1065zm1.2573 -0.1964c-0.0063,0.1745 -0.0574,0.3592 -0.1051,0.5013 -0.1141,0.3401 -0.246,0.6735 -0.3911,1.0014 -0.0034,-0.0002 -0.0068,-0.0008 -0.0107,-0.0001 -0.219,0.0416 -0.44,0.054 -0.6615,0.0253 -0.1036,-0.0135 -0.244,-0.0332 -0.3733,-0.0727 0.0053,-0.004 0.0099,-0.0093 0.0132,-0.0165 0.165,-0.3607 0.3299,-0.7214 0.4951,-1.082 0.1533,-0.3345 0.3216,-0.6989 0.68,-0.8396 0.2325,0.0695 0.3318,0.265 0.3534,0.4829zm0.1397 2.949c-0.0225,-0.0397 -0.0462,-0.0788 -0.0704,-0.1178 -0.0001,-0.0148 -0.0071,-0.0287 -0.0216,-0.0345 -0.0383,-0.0602 -0.0781,-0.1196 -0.1192,-0.1785 -0.0012,-0.0019 -0.0023,-0.0036 -0.0037,-0.0053 -0.1602,-0.2289 -0.3387,-0.4498 -0.5064,-0.6709 0.0081,-0.0042 0.0151,-0.0111 0.0192,-0.0217 0.0472,-0.1195 0.0945,-0.2391 0.1417,-0.3587 0.016,-0.0005 0.0321,-0.0088 0.0396,-0.0275 0.1005,-0.2524 0.202,-0.5045 0.3015,-0.7573 0.0857,-0.2173 0.1751,-0.4427 0.1769,-0.6799 0.0004,-0.0464 -0.0038,-0.0927 -0.0115,-0.1383 -0.0116,-0.2329 -0.1132,-0.4556 -0.343,-0.5409 -0.0039,-0.0039 -0.0086,-0.0069 -0.0142,-0.0085 -0.0082,-0.0116 -0.0216,-0.0196 -0.0396,-0.0168 -0.4082,0.0624 -0.722,0.2921 -0.9418,0.6368 -0.0895,0.1406 -0.1732,0.2855 -0.2527,0.4329 -0.019,-0.0242 -0.0413,-0.0476 -0.066,-0.0698 -0.0014,-0.0016 -0.0033,-0.0029 -0.0051,-0.0043 -0.1673,-0.1475 -0.4444,-0.2419 -0.6359,-0.1572 -0.2694,0.1191 -0.2059,0.4858 -0.109,0.7139 -1.1219,-0.052 -2.2438,-0.1129 -3.3602,-0.2383 -0.0526,-0.0059 -0.1052,-0.0125 -0.1577,-0.019 0.0691,-0.6135 0.3927,-1.1703 0.4206,-1.7911 0.0159,-0.3566 -0.0939,-0.9255 -0.4991,-1.0223 -0.0006,-0.0004 -0.0012,-0.0009 -0.0018,-0.0013 -0.011,-0.0074 -0.0219,-0.0085 -0.0314,-0.0056 -0.0149,-0.0025 -0.0303,-0.0045 -0.0459,-0.0057 -0.211,-0.0169 -0.4758,0.0545 -0.648,0.1767 -0.2104,0.1494 -0.3424,0.3944 -0.4873,0.6014 -0.3973,0.5674 -0.8253,1.1126 -1.2794,1.6356 -0.0042,0.0049 -0.0071,0.0101 -0.0089,0.0155 -0.1976,-0.0244 -0.3956,-0.0449 -0.5943,-0.0592 -0.9866,-0.0713 -2.0994,0.0141 -2.7965,0.7986 -0.1583,0.178 -0.2969,0.3723 -0.4369,0.5647 -0.1227,0.1685 -0.2987,0.3495 -0.343,0.5603 -0.0285,0.1353 -0.0062,0.2682 0.0469,0.3913 0.0083,0.0264 0.0176,0.0528 0.0294,0.0796 0.1477,0.3344 0.4786,0.5795 0.8,0.7319 0.7428,0.352 1.643,0.3725 2.4437,0.2522 0.0931,0.5036 0.1748,1.0004 0.1765,1.5231 0.0016,0.5043 0.0162,1.0287 0.2303,1.4958 0.0676,0.1568 0.1597,0.3 0.3031,0.402 0.1428,0.1015 0.3075,0.1326 0.4672,0.0993 0.0321,-0.0028 0.064,-0.0075 0.0954,-0.015 0.0097,0.0194 0.0326,0.0328 0.0571,0.0194 0.0748,-0.0407 0.1415,-0.0875 0.2019,-0.1391 0.0556,-0.0393 0.1082,-0.0858 0.1563,-0.1393 0.2759,-0.3065 0.381,-0.7198 0.4409,-1.1175 0.075,-0.498 0.135,-0.9731 0.2987,-1.4467 0.1122,-0.211 0.2389,-0.4176 0.3314,-0.6359 0.0319,-0.0752 0.061,-0.1564 0.0844,-0.2403 1.6239,-0.1754 3.3309,-0.104 4.8206,-0.8724 0.185,0.2179 0.3852,0.4225 0.603,0.6093 0.1903,0.1631 0.4284,0.3646 0.6889,0.4119 0.0764,0.0201 0.1544,0.022 0.2325,-0.0023 0.002,-0.0004 0.0041,-0.0006 0.0062,-0.001 0.3132,-0.0718 0.3588,-0.3611 0.2166,-0.6123z"/>
   <path id="_642034008" class="fil0" d="M25.4038 39.1751c-0.0788,-0.0803 -0.0827,-0.2252 -0.0042,-0.3068 0.0106,-0.0109 0.0223,-0.0201 0.0347,-0.0279 0.0185,-0.0076 0.0377,-0.0104 0.0568,-0.0102 0.0059,0.0022 0.0122,0.0032 0.019,0.0015 0.0409,0.0057 0.0795,0.0274 0.1066,0.0618 0.0146,0.0266 0.0268,0.0554 0.0353,0.0783 0.0185,0.0872 0.0017,0.2161 -0.0832,0.2409 -0.0098,0.0029 -0.0162,0.0085 -0.0209,0.0151 -0.0528,0.0025 -0.1057,-0.0137 -0.1441,-0.0527zm0.1862 -0.4461c-0.0007,0.0001 -0.0011,0.0006 -0.0019,0.0008 -0.0607,-0.0116 -0.127,-0.0017 -0.1867,0.0337 -0.0144,0.0063 -0.0286,0.014 -0.042,0.0239 -0.0082,0.0061 -0.0133,0.0137 -0.0158,0.0217 -0.1136,0.1175 -0.111,0.3234 0.0141,0.436 0.087,0.0783 0.2174,0.0834 0.3184,0.0325 0.018,0.0014 0.0373,-0.0061 0.0458,-0.0268 0.0004,-0.0008 0.0006,-0.0016 0.0008,-0.0023 0.0318,-0.0245 0.0586,-0.0555 0.0768,-0.0928 0.0709,-0.1461 0.003,-0.4685 -0.2095,-0.4267z"/>
   <path id="_642034440" class="fil0" d="M26.5493 39.1778c-0.0987,-0.0071 -0.1587,-0.0947 -0.1549,-0.189 0.0053,-0.1302 0.1869,-0.1529 0.2322,-0.1265 0.0445,0.0469 0.0618,0.1193 0.0635,0.1909 -0.0135,0.0898 -0.124,0.1258 -0.1408,0.1246zm0.0266 -0.4565c-0.1241,-0.0403 -0.2368,0.0951 -0.2586,0.2123 -0.0259,0.1404 0.0458,0.2925 0.1933,0.3223 0.0722,0.0144 0.2513,-0.0384 0.2786,-0.2109 0.0207,-0.1313 -0.0601,-0.3187 -0.2133,-0.3237z"/>
   <path id="_642034632" class="fil0" d="M27.478 39.1346c-0.0871,0.0057 -0.1512,-0.0891 -0.1376,-0.1743 0.0145,-0.0902 0.1105,-0.1386 0.191,-0.1163 0.0742,0.0205 0.2345,0.2715 -0.0534,0.2906zm-0.2225 -0.1432c0,0.0016 0.001,0.0028 0.0013,0.0043 0.0066,0.1142 0.097,0.2164 0.2156,0.2215 0.1328,0.0058 0.232,-0.1016 0.2465,-0.2353 0.0289,-0.2678 -0.4636,-0.4046 -0.4634,0.0095z"/>
   <path id="_642034056" class="fil0" d="M28.4897 38.924c0.0551,-0.0153 0.1192,0.0127 0.1198,0.013 0.0303,0.0347 0.1255,0.2587 -0.0658,0.2995 -0.0053,0.0001 -0.0106,0.0019 -0.016,0.0001 -0.2934,-0.0936 -0.0993,-0.2815 -0.038,-0.3126zm0.0272 -0.0887c-0.0166,-0.003 -0.0339,-0.0013 -0.0516,0.0073 -0.0865,0.0183 -0.1467,0.1197 -0.1501,0.2115 -0.0046,0.1249 0.0744,0.2541 0.2069,0.2651 0.3205,0.0266 0.2463,-0.507 -0.0052,-0.4839z"/>
   <path id="_642033144" class="fil0" d="M8.9653 29.7083c-0.4308,0.1516 -0.8748,0.2944 -1.2882,0.4924 0.0057,-0.1376 0.0103,-0.2752 0.0153,-0.4128 0.1625,-0.0038 0.3226,-0.0508 0.4813,-0.0875 0.2658,-0.0616 0.5297,-0.1311 0.7934,-0.2008 0.4872,-0.1288 0.9962,-0.2324 1.4575,-0.4389 0.0075,-0.0033 0.0134,-0.0077 0.0186,-0.0125 -0.0039,0.0572 -0.0079,0.1142 -0.0119,0.1714 -0.4925,0.1509 -0.9801,0.3176 -1.466,0.4887zm-1.2332 -1.7618c0.1012,0.0537 0.1929,0.1086 0.2536,0.2412 0.1164,0.254 0.0354,0.7051 0.2556,0.9065 0.2067,0.1893 0.3639,-0.1197 0.4129,-0.2807 0.0948,-0.3118 0.0306,-0.8329 0.3573,-1.0266 0.1802,-0.1068 0.4557,-0.117 0.4588,-0.3609 0.1499,-0.0566 0.3657,-0.1181 0.4261,-0.257 0.0744,-0.1711 -0.1228,-0.3185 -0.1669,-0.4671 -0.0676,-0.228 0.0309,-0.4839 0.0946,-0.7023 0.0381,-0.1305 0.0753,-0.2648 -0.0516,-0.3596 -0.1223,-0.0913 -0.3185,-0.0601 -0.4545,-0.028 -0.2579,0.0608 -0.4837,0.1747 -0.7551,0.1732 -0.3067,-0.0017 -0.5767,0.0409 -0.8425,0.1191 -0.0004,-0.103 -0.0008,-0.2062 -0.0029,-0.3094 0.039,-0.0117 0.0785,-0.0297 0.1258,-0.0466 0.1816,-0.0653 0.3623,-0.1331 0.5433,-0.2004 0.6367,-0.2364 1.2657,-0.4908 1.8979,-0.7378 -0.0447,0.319 -0.0332,0.6527 -0.0438,0.9729 -0.0124,0.381 -0.023,0.7622 -0.0316,1.1434 -0.017,0.7546 -0.0775,1.5339 -0.0184,2.2866 0,0.0005 0.0002,0.001 0.0002,0.0014 -0.3991,0.1395 -0.8219,0.226 -1.2294,0.3299 -0.249,0.0634 -0.4985,0.1244 -0.7477,0.1868 -0.1712,0.0428 -0.3536,0.0725 -0.5172,0.1419 0.0195,-0.5753 0.0315,-1.1509 0.0355,-1.7265zm-1.1297 1.243c-0.195,-0.1524 -0.4011,-0.2884 -0.6058,-0.4272 -0.1727,-0.1169 -0.3316,-0.2615 -0.5084,-0.372 0.0236,-0.0415 0.0151,-0.0955 -0.0154,-0.1298 0.0035,-0.107 0.0064,-0.214 0.0096,-0.321 0.2565,0.3055 0.6022,0.5662 0.8987,0.8194 0.357,0.3048 0.7229,0.6041 1.1051,0.8773 -0.0056,0.1269 -0.0108,0.2537 -0.0171,0.3806 -0.2493,-0.31 -0.559,-0.5865 -0.8667,-0.8273zm-1.1153 -1.4107c0.0098,-0.3465 0.018,-0.6928 0.026,-1.0393 0.1722,0.1759 0.1699,0.5401 0.4101,0.6764 0.191,0.1085 0.3472,0.0779 0.4747,0.2991 0.0581,0.101 0.1301,0.1962 0.2335,0.2549 0.182,0.1034 0.4201,0.0716 0.5422,-0.1052 0.0438,-0.0636 0.0954,-0.2068 0.2072,-0.1815 0.0497,0.0112 0.1138,0.1059 0.1595,0.1468 -0.0084,0.5435 -0.0239,1.0868 -0.0462,1.6298 -0.3325,-0.255 -0.6646,-0.5091 -0.9849,-0.7799 -0.3406,-0.2878 -0.6569,-0.6441 -1.0221,-0.9011zm-3.0823 1.4903c0.0169,-0.553 0.0277,-1.106 0.0327,-1.6591 0.0053,-0.3718 0.0057,-0.7435 0.0009,-1.1153 -0.0008,-0.1136 -0.0007,-0.2273 -0.0021,-0.3408 -0.0051,-0.4402 -0.0178,-0.8814 -0.0575,-1.3191 -0.0066,-0.1127 -0.0133,-0.2255 -0.0209,-0.3382 -0.0267,-0.4003 -0.0255,-0.876 -0.2059,-1.2489 0.0061,0.0006 0.0121,0.001 0.0182,0.0015 0.3743,0.0857 0.7922,0.0824 1.1658,0.0813 0.5068,-0.0015 1.0135,-0.0393 1.5147,-0.1133 0.1201,-0.0177 0.2425,-0.0501 0.3633,-0.0602 0.0746,-0.0063 0.1411,-0.0003 0.2029,0.016 -0.0209,0.1327 -0.0299,0.2702 -0.0338,0.4089 -0.1753,-0.0394 -0.3586,-0.0143 -0.5682,-0.0046 -0.3623,0.0169 -0.7248,0.0268 -1.0874,0.0382 -0.3655,0.0115 -1.2101,0.0021 -1.2082,0.0661 -0.0142,0.0165 0.1609,1.692 0.212,2.5092 0.0524,0.8369 0.0762,1.6804 0.0691,2.519 -0.0005,0.0765 0.0901,0.1204 0.1544,0.0978 0.7887,-0.2762 1.5629,-0.6021 2.3359,-0.9203 -0.0025,0.1256 -0.0054,0.2512 -0.0075,0.3768 -0.9551,0.349 -1.9087,0.6982 -2.8784,1.005zm2.9777 -5.1254c-0.0021,0.0012 -0.0042,0.0026 -0.006,0.0042 -0.0018,-0.0076 -0.0055,-0.0146 -0.0125,-0.0195 -0.2426,-0.1715 -1.0547,-0.2864 -1.0397,0.1989 0.0067,0.2169 0.3751,0.3225 0.2844,0.5358 -0.0471,0.1107 -0.1436,0.1942 -0.1304,0.2929 -0.1819,0.066 -0.3286,0.2316 -0.4053,0.4081 -0.0351,0.081 -0.0597,0.1834 -0.0108,0.264 0.0152,0.0249 0.0753,0.0552 0.0825,0.073 0.0181,0.044 -0.0514,-0.0286 -0.1071,-0.0243 -0.0911,0.0069 -0.169,0.0773 -0.2041,0.1577 -0.0282,0.0646 -0.0149,0.0869 -0.0192,0.1527 -0.0075,0.1136 0.0414,0.1188 -0.0199,0.2891 -0.0072,0.02 -0.0144,0.0387 -0.0215,0.0567 -0.0016,-0.0022 -0.0035,-0.0044 -0.0066,-0.0057 -0.0659,-0.028 -0.1421,-0.018 -0.2121,-0.0119 -0.0893,0.0075 -0.1776,0.0223 -0.2651,0.0408 -0.0483,0.0101 -0.0416,0.0879 0.007,0.0773 0.082,-0.0181 0.1645,-0.0323 0.2481,-0.0411 0.0715,-0.0076 0.1505,-0.0026 0.2172,-0.0308 -0.0389,0.097 -0.0707,0.1759 -0.0594,0.3013 0.0166,0.1846 0.0947,0.3568 0.1752,0.5214 0.0043,0.0089 0.0098,0.0168 0.0158,0.0239 -0.1641,0.0263 -0.3276,0.072 -0.4928,0.0887 -0.0431,0.0042 -0.0373,0.0718 0.006,0.067 0.1854,-0.02 0.3991,-0.0402 0.5749,-0.1174 0.0309,-0.0024 0.0609,-0.0188 0.0798,-0.0533 0.0742,-0.1354 0.1504,-0.3671 0.2604,-0.4755 0.1228,-0.1208 0.2201,0.0001 0.3508,-0.0571 0.0731,-0.0319 0.108,-0.0961 0.1299,-0.1683 0.0295,-0.0977 0,-0.0986 0.0967,-0.1668 0.1158,-0.0815 0.2569,-0.038 0.3779,0.0196 -0.0045,0.0363 0.0092,0.0748 0.0447,0.0944 -0.0095,0.3544 -0.0189,0.709 -0.0268,1.0635 -0.7594,0.2665 -1.5249,0.528 -2.2716,0.8288 -0.0341,-0.7861 -0.0769,-1.5701 -0.1351,-2.3551 -0.0593,-0.8005 -0.0926,-1.6338 -0.2473,-2.4239 0.6872,0.0539 1.4009,-0.0251 2.0886,-0.0271 0.1973,-0.0007 0.4524,-0.0336 0.6514,0.0314 -0.0003,0.1299 0.0018,0.2595 0.002,0.3866zm-0.0022 0.2044c-0.0126,0.4316 -0.0232,0.8632 -0.0333,1.2948 -0.0055,0.2338 -0.012,0.4676 -0.0181,0.7015 -0.1531,-0.0586 -0.3228,-0.086 -0.4831,-0.0447 -0.0705,0.0182 -0.1265,0.042 -0.1717,0.1014 -0.045,0.0589 -0.031,0.1374 -0.067,0.1938 -0.077,0.1207 -0.2503,0.0041 -0.3722,0.1056 -0.1141,0.0948 -0.1924,0.2622 -0.263,0.417 -0.0317,-0.0759 -0.0575,-0.154 -0.0685,-0.2339 -0.026,-0.1877 0.0684,-0.2851 0.1197,-0.4476 0.0302,-0.0957 -0.0123,-0.1152 -0.0167,-0.2016 -0.0131,-0.2643 0.1751,-0.1324 0.2985,-0.1959 0.0849,-0.0436 0.1335,-0.1608 0.0675,-0.2421 -0.067,-0.0826 -0.1798,-0.032 -0.1165,-0.1975 0.051,-0.1336 0.2264,-0.2766 0.3575,-0.3009 0.0684,-0.0127 0.1084,-0.0996 0.0477,-0.1498 -0.0752,-0.0623 0.1289,-0.2747 0.1357,-0.3606 0.0071,-0.0905 -0.034,-0.1415 -0.0984,-0.196 -0.0465,-0.0393 -0.1041,-0.0612 -0.149,-0.1039 -0.1457,-0.1389 -0.0824,-0.3068 0.092,-0.3629 0.2339,-0.0752 0.4671,0.0032 0.6893,0.0735 0.0091,0.0029 0.0175,0.0015 0.0246,-0.0024 0.0009,0.0056 0.0023,0.0114 0.0052,0.0175 0.0069,0.014 0.0143,0.0277 0.0212,0.0418 -0.0004,0.031 -0.0005,0.0623 -0.0014,0.0929zm0.3294 -1.0009c0.1949,0.1807 0.3904,0.3607 0.5862,0.5405 0.4103,0.3768 0.8193,0.7551 1.2273,1.1345 -0.0049,0.1029 -0.0061,0.2063 -0.0054,0.31 -0.055,-0.0499 -0.1061,-0.1099 -0.16,-0.1574 -0.2858,-0.2516 -0.5747,-0.4995 -0.8633,-0.7479 -0.275,-0.2368 -0.5432,-0.4879 -0.8297,-0.7108 -0.0202,-0.0156 -0.0403,-0.0293 -0.0604,-0.0421 0.0049,-0.1402 0.0055,-0.2798 -0.0045,-0.4157 0.0373,0.0255 0.0735,0.0553 0.1098,0.0889zm1.8131 2.2248c0.004,0.1308 0.0094,0.2616 0.0139,0.392 -0.112,0.0398 -0.2247,0.0854 -0.3404,0.1365 -0.0377,-0.0853 -0.0755,-0.1707 -0.1132,-0.2561 -0.0188,-0.0423 -0.0697,-0.0757 -0.1169,-0.0543 -0.246,0.1118 -0.3646,-0.2559 -0.4929,-0.3894 -0.0927,-0.0964 -0.2145,-0.116 -0.3191,-0.1914 -0.1497,-0.108 -0.232,-0.3266 -0.3253,-0.4839 -0.0831,-0.1401 -0.1672,-0.2799 -0.2565,-0.4162 0.0047,-0.1384 0.0139,-0.2812 0.022,-0.4252 0.1001,0.0836 0.195,0.1874 0.2867,0.2669 0.2878,0.2493 0.5755,0.4987 0.8631,0.748 0.1376,0.1193 0.2756,0.2381 0.4145,0.3558 0.0856,0.0725 0.2401,0.246 0.3641,0.3173zm0.0219 1.9511c-0.0001,0.0085 -0.0002,0.017 -0.0004,0.0255 -0.1151,-0.0927 -0.2398,-0.1712 -0.385,-0.0677 -0.0884,0.063 -0.0851,0.1573 -0.1485,0.2332 -0.2426,0.2901 -0.386,-0.0918 -0.4945,-0.2359 -0.0637,-0.0844 -0.1347,-0.135 -0.2351,-0.1683 -0.1001,-0.0334 -0.2184,-0.0364 -0.3034,-0.108 -0.0801,-0.0675 -0.1162,-0.1746 -0.1601,-0.2654 -0.082,-0.1689 -0.1498,-0.333 -0.2992,-0.42 0.0065,-0.2804 0.0128,-0.5609 0.0201,-0.8413 0.0095,-0.3586 0.0186,-0.7173 0.0265,-1.0761 0.0656,0.1158 0.1335,0.2305 0.2015,0.3446 0.1047,0.1758 0.1851,0.3648 0.3793,0.4521 0.1266,0.0569 0.221,0.1084 0.2969,0.231 0.046,0.0742 0.0849,0.1535 0.1457,0.2174 0.0998,0.1052 0.2246,0.168 0.3588,0.1428 0.0391,0.0884 0.0782,0.1767 0.1172,0.2651 0.0187,0.0422 0.0698,0.0759 0.1168,0.0543 0.1188,-0.0545 0.2386,-0.1094 0.3603,-0.1592 0.0003,0.0194 0.0009,0.0388 0.0012,0.0581 0.0059,0.4392 0.0063,0.8785 0.0019,1.3178zm1.9785 -0.986c-0.0017,0.1263 0.0214,0.2479 0.0823,0.3598 0.0403,0.0739 0.1279,0.1283 0.0668,0.2287 -0.0357,0.0585 -0.2736,0.1177 -0.3394,0.1442 -0.042,0.0169 -0.0665,0.0565 -0.0642,0.1014 0.0063,0.1285 -0.305,0.1722 -0.3902,0.2243 -0.091,0.0554 -0.1635,0.1373 -0.219,0.2276 -0.1528,0.2487 -0.1471,0.5399 -0.2088,0.816 -0.0873,0.3903 -0.1085,-0.005 -0.1375,-0.1602 -0.0239,-0.1275 -0.0503,-0.2541 -0.1049,-0.3726 -0.1097,-0.2381 -0.2886,-0.2972 -0.4747,-0.415 0,-0.0292 0.0004,-0.0586 0.0005,-0.0878 0.0005,-0.4389 -0.0034,-0.8779 -0.0108,-1.3169 -0.0011,-0.0688 -0.0012,-0.1387 -0.0016,-0.2081 0.2018,-0.071 0.4094,-0.1211 0.6264,-0.1257 0.1626,-0.0035 0.3191,0.0149 0.4795,-0.0192 0.1918,-0.0408 0.3692,-0.1357 0.5626,-0.1704 0.0825,-0.0149 0.2737,-0.0425 0.2968,0.0856 0.0099,0.0544 -0.0632,0.1933 -0.0816,0.2535 -0.0433,0.1413 -0.0803,0.2861 -0.0822,0.4348zm1.2795 -2.6401c-0.0319,0.1772 -0.0316,0.364 -0.0438,0.5418 -0.0159,0.2308 -0.032,0.4614 -0.0476,0.6923 -0.0312,0.4616 -0.0619,0.9232 -0.0929,1.3847 -0.0547,0.8152 -0.1125,1.63 -0.169,2.4449 -0.0133,-0.018 -0.0354,-0.0277 -0.0625,-0.0189 0.0418,-0.7059 -0.0033,-1.4256 0.002,-2.1324 0.0028,-0.3641 0.0073,-0.7283 0.0136,-1.0924 0.0065,-0.3808 0.0483,-0.7781 0.0122,-1.158 0.0134,-0.0052 0.0268,-0.0105 0.0402,-0.0157 0.1012,-0.0392 0.0384,-0.2023 -0.0571,-0.1564 -0.6669,0.3204 -1.3585,0.5906 -2.0572,0.8351 -0.1752,0.0615 -0.367,0.1509 -0.5495,0.1838 -0.0324,0.0059 -0.0569,0.0115 -0.0788,0.0144 -0.0052,-0.1298 -0.0135,-0.259 -0.0282,-0.3867 1.0456,-0.362 2.073,-0.7769 3.1186,-1.1365zm-0.1622 5.3307c0.0531,-0.9097 0.1037,-1.8196 0.1584,-2.7292 0.0279,-0.4623 0.056,-0.9244 0.0834,-1.3867 0.0253,-0.4265 0.1246,-0.9331 0.048,-1.3555 -0.0063,-0.0349 -0.0362,-0.0472 -0.0612,-0.0383 -0.0198,-0.0132 -0.0451,-0.0175 -0.0735,-0.0052 -0.7783,0.3377 -1.5921,0.6089 -2.3929,0.8884 -0.2008,0.07 -0.4019,0.1393 -0.6033,0.2078 -0.1494,0.0508 -0.1661,0.0506 -0.2906,-0.0414 -0.0786,-0.0579 -0.1476,-0.1374 -0.2189,-0.2037 -0.3162,-0.2942 -0.6331,-0.5874 -0.9508,-0.88 -0.1466,-0.135 -0.2931,-0.2701 -0.4413,-0.4033 -0.0985,-0.0885 -0.2057,-0.2094 -0.334,-0.2669 -0.018,-0.0296 -0.0545,-0.0391 -0.0832,-0.0268 -0.1517,-0.0301 -0.3141,0.0236 -0.4617,0.0495 -0.2119,0.0374 -0.4247,0.068 -0.6384,0.0923 -0.2327,0.0264 -0.4663,0.044 -0.7003,0.0547 -0.2434,0.0092 -0.4871,0.0113 -0.7309,0.0062 -0.1885,-0.0076 -0.3791,-0.0209 -0.568,-0.0248 -0.1038,-0.0069 -0.2076,-0.0148 -0.3113,-0.0243 -0.0088,-0.0128 -0.0207,-0.0183 -0.0329,-0.018 -0.0092,-0.0038 -0.0188,-0.0054 -0.0305,-0.0035 -0.0165,0.0027 -0.0343,0.0114 -0.0407,0.0282 -0.0205,0.054 0.0109,0.1157 0.0257,0.1684l0.0041 0.0149c0.0003,0.0039 0.0009,0.0082 0.0023,0.0126 0.0088,0.028 0.0168,0.0563 0.025,0.0844 0.0119,0.042 0.0236,0.0841 0.0354,0.1263 0.0001,0.0001 0.0002,0.0002 0.0003,0.0005 0.0345,0.128 0.065,0.2568 0.0914,0.3863 0.0257,0.2036 0.047,0.4082 0.0567,0.6186 0.0247,0.5358 0.0388,1.0721 0.0452,1.6084 0.0129,1.0797 -0.0184,2.1591 -0.0876,3.2367 -0.0051,0.0804 0.0577,0.1425 0.1398,0.1175 1.0386,-0.3154 2.075,-0.6539 3.0801,-1.0655 0.2422,0.3589 0.7337,0.5832 1.0665,0.845 0.3797,0.2988 0.686,0.6506 1.0081,1.0067 0.0032,0.0185 0.0103,0.0339 0.0196,0.0468 0.0106,0.0417 0.0586,0.0796 0.1074,0.0676 0.5123,-0.1261 1.0073,-0.337 1.5052,-0.5104 0.5001,-0.1742 1.0039,-0.3375 1.5059,-0.5063 0.0877,-0.0295 0.0892,-0.1232 0.0435,-0.178z"/>
   <path id="_642033576" class="fil0" d="M29.2948 10.6866c-0.2517,0.2983 -0.5982,0.5424 -0.7808,0.8846 -0.2578,-0.4395 -0.6674,-0.752 -0.9622,-1.1817 -0.1773,-0.2584 -0.3971,-0.7681 -0.1527,-1.0586 0.3289,-0.3911 1.0262,0.0412 1.0805,0.4415 0.012,0.089 0.0853,0.1148 0.1529,0.0964 0.0729,0.1059 0.2803,0.0291 0.2505,-0.1274 -0.0308,-0.1618 0.1251,-0.3356 0.2453,-0.4341 0.2381,-0.1952 0.5589,-0.1012 0.6481,0.1996 0.1212,0.4086 -0.2347,0.887 -0.4816,1.1797zm0.7195 -1.3443c-0.283,-0.66 -1.1393,-0.4448 -1.362,0.0811 -0.3207,-0.5368 -1.2864,-0.7727 -1.5581,-0.1087 -0.452,1.1046 1.0066,1.7787 1.3023,2.6685 0.0256,0.0772 0.0949,0.1043 0.1581,0.0954 0.0501,0.0013 0.0964,-0.0236 0.1134,-0.0819 0.0036,-0.0095 0.0062,-0.0196 0.0073,-0.0304 0.087,-0.5214 0.6461,-0.8419 0.9499,-1.2438 0.2825,-0.3736 0.5951,-0.8996 0.3891,-1.3802z"/>
  </g>
 </g>
</svg>
