<?xml version="1.0" encoding="UTF-8"?>
<!DOCTYPE svg PUBLIC "-//W3C//DTD SVG 1.1//EN" "http://www.w3.org/Graphics/SVG/1.1/DTD/svg11.dtd">
<!-- Creator: CorelDRAW -->
<svg xmlns="http://www.w3.org/2000/svg" xml:space="preserve" width="26.4582mm" height="26.4582mm" style="shape-rendering:geometricPrecision; text-rendering:geometricPrecision; image-rendering:optimizeQuality; fill-rule:evenodd; clip-rule:evenodd"
viewBox="0 0 26.4582 26.4582"
 xmlns:xlink="http://www.w3.org/1999/xlink">
 <defs>
  <style type="text/css">
   <![CDATA[
    .fil1 {fill:#FEFEFE}
    .fil0 {fill:#044EBD}
   ]]>
  </style>
 </defs>
 <g id="Réteg_x0020_1">
  <metadata id="CorelCorpID_0Corel-Layer"/>
  <circle class="fil0" cx="13.2291" cy="13.2291" r="13.2292"/>
  <path id="plane-solid.svg" class="fil1" d="M10.8772 6.1735l0 4.1999 -6.7594 3.8622c-0.183,0.1047 -0.2961,0.2997 -0.2961,0.5107 0,0 0,0.0001 0,0.0001l0 2.407c0,0.3906 0.3737,0.6725 0.7492,0.5652l6.3063 -1.8018 0 3.78 -2.1166 1.5875c-0.1481,0.111 -0.2352,0.2855 -0.2352,0.4704l0 1.4695c0,0.3825 0.3593,0.6633 0.7305,0.5703l3.9732 -1.1579 3.9732 1.1579c0.3712,0.093 0.7305,-0.1878 0.7305,-0.5703l0 -1.4696c0,-0.1852 -0.0871,-0.3593 -0.2352,-0.4704l-2.1166 -1.5874 0 -3.78 6.3059 1.8018c0.3755,0.1073 0.7496,-0.1746 0.7496,-0.5652l0 -2.407c0,-0.211 -0.1132,-0.4057 -0.2961,-0.5104l-6.7594 -3.8626 0 -4.1999c0,-1.299 -1.0528,-3.5278 -2.3519,-3.5278 -1.2991,0 -2.3519,2.2288 -2.3519,3.5278z"/>
 </g>
</svg>
